<?xml version="1.0" encoding="utf-8"?>
<!-- Generator: Adobe Illustrator 21.1.0, SVG Export Plug-In . SVG Version: 6.00 Build 0)  -->
<svg version="1.1" id="Layer_1" xmlns="http://www.w3.org/2000/svg" xmlns:xlink="http://www.w3.org/1999/xlink" x="0px" y="0px"
	 viewBox="0 0 300 97.2" style="enable-background:new 0 0 300 97.2;" xml:space="preserve">
<style type="text/css">
	.st0{fill:#AB368C;}
</style>
<polygon class="st0" points="24.4,76.8 57.9,76.8 62.5,66.2 29.2,66.2 47.2,26.9 47.9,24.6 48.6,26.8 77.9,90.9 90.4,90.9 51.4,5.8 
	44.4,5.8 5.4,90.9 17.9,90.9 "/>
<g>
	<path class="st0" d="M113.1,26.2c0,0.1,27.6,40.1,27.6,40.1h7.2c0,0,27.4-39.7,27.5-40c0,1.1,0,1.3,0,64.6h11.5V5.9h-10.9L145,50.6
		l-0.7,2.1l-0.8-2.2L112.7,5.9h-11v85h11.4V26.2z"/>
</g>
<polygon class="st0" points="202.8,90.8 216.5,90.8 244.9,48.7 216.3,5.8 202.7,5.8 231.2,48.7 "/>
<polygon class="st0" points="293.8,90.8 265.4,48.7 294,5.8 280.3,5.8 251.7,48.7 280.2,90.8 "/>
</svg>
